Plot
----
A group of kids (the Midnight Society) get together in the woods, and tell ghost stories.

Contents
--------

Season 1
---------
Episode 01 - The Tale of the Phantom Cab
Episode 02 - The Tale of Laughing in the Dark
Episode 03 - The Tale of the Lonely Ghost
Episode 04 – The Tale of the Twisted Claw
Episode 05 – The Tale of the Hungry Hounds
Episode 06 – The Tale of the Super Specs
Episode 07 – The Tale of the Captured Souls
Episode 08 – The Tale of the Nightly Neighbors
Episode 09 – The Tale of the Sorcerer's Apprentice
Episode 10 – The Tale of Jake and the Leprechaun
Episode 11 – The Tale of the Dark Music
Episode 12 – The Tale of the Prom Queen
Episode 13 – The Tale of the Pinball Wizard

Season 2
---------
Episode 01 - The Tale of the Final Wish
Episode 02 - The Tale of Midnight Madness
Episode 03 - The Tale of Locker 22
Episode 04 – The Tale of the 13th Floor
Episode 05 – The Tale of the Dream Machine
Episode 06 – The Tale of the Dark Dragon
Episode 07 – The Tale of the Whispering Walls
Episode 08 – The Tale of the Frozen Ghost
Episode 09 – The Tale of the Full Moon
Episode 10 – The Tale of Shiny Red Bike
Episode 11 – The Tale of the Magician's Assistant
Episode 12 – The Tale of the Hatching
Episode 13 – The Tale of Old Man Corcoran

Season 3
---------
Episode 01 - The Tale of the Midnight Ride
Episode 02 - The Tale of Apartment 214
Episode 03 - The Tale of Watcher's Woods
Episode 04 - The Tale of the Phone Police
Episode 05 - The Tale of the Dollmaker
Episode 06 - The Tale of the Bookish Babysitter
Episode 07 - The Tale of the Carved Stone
Episode 08 - The Tale of the Guardian's Curse
Episode 09 - The Tale of the Curious Camera
Episode 10 - The Tale of the Dream Girl
Episode 11 - The Tale of the Quicksilver
Episode 12 - The Tale of the Crimson Clown
Episode 13 - The Tale of the Dangerous Soup

Season 4
---------
Episode 01 - The Tale of the Renegade Virus
Episode 02 - The Tale of the Long Ago Locket
Episode 03 - The Tale of the Water Demons
Episode 04 - The Tale of Cutter's Treasure - Part 1
Episode 05 - The Tale of Cutter's Treasure - Part 2
Episode 06 - The Tale of the Quiet Librarian
Episode 07 - The Tale of the Silent Servant
Episode 08 - The Tale of the Room for Rent
Episode 09 - The Tale of the Ghastly Grinner
Episode 10 - The Tale of the Fire Ghost
Episode 11 - The Tale of the Closet Keepers
Episode 12 - The Tale of the Unfinished Painting
Episode 13 - The Tale of Train Magic

Season 5
---------
Episode 01: The Tale of the Dead Man's Float
Episode 02: The Tale of Station 109.1
Episode 03: The Tale of the Mystical Mirror
Episode 04: The Tale of the Chameleons
Episode 05: The Tale of Prisoners Past
Episode 06: The Tale of C7
Episode 07: The Tale of the Manaha
Episode 08: The Tale of the Unexpected Visitor
Episode 09: The Tale of the Vacant Lot
Episode 10: The Tale of a Door Unlocked
Episode 11: The Tale of the Night Shift
Episode 12: The Tale of the Jagged Sign
Episode 13: The Tale of Badge

Season 6
---------
Episode 01 - The Tale of the Zombie Dice
Episode 02 - The Tale of the Forever Game
Episode 03 - The Tale of Jake the Snake
Episode 04 - The Tale of the Vitrual Pets
Episode 05 - The Tale of the Misfourtune Cookie
Episode 06 - The Tale of the Grusome Gourmets
Episode 07 - The Tale of the Hunted
Episode 08 - The Tale of the Vampire Town
Episode 09 - The Tale of the Wisdom Glass
Episode 10 - The Tale of the Walking Shadow
Episode 11 - Tale of Oblivion
Episode 12 - The Tale of the Secret Admirer
Episode 13 - The Tale of Bigfoot Ridge

Season 7
---------
Episode 01 - The Tale of the Silver Sight Part 1
Episode 02 - The Tale of the Silver Sight Part 2
Episode 03 - The Tale of the Silver Sight Part 3
Episode 04 - The Tale of the Lunar Locusts
Episode 05 - The Tale of the Stone Maiden
Episode 06 - The Tale of Highway 13
Episode 07 - The Tale of the Reanimator
Episode 08 - The Tale of the Time Trap
Episode 09 - The Tale of the Photo Finish
Episode 10 - The Tale of the Last Dance
Episode 11 - The Tale of the Laser Maze
Episode 12 - The Tale of Many Faces
Episode 13 - The Tale of the Night Nurse


Video Info
-----------
ID : 0
Format : MPEG-4 Visual
Format profile : Advanced Simple@L5
Format settings, BVOP : 1
Format settings, QPel : No
Format settings, GMC : No warppoints
Format settings, Matrix : Custom
Codec ID : XVID
Codec ID/Hint : XviD
Duration : 24mn 30s
Bit rate : 1 126 Kbps
Width : 640 pixels
Height : 480 pixels
Display aspect ratio : 4:3
Frame rate : 29.970 fps
Color space : YUV
Chroma subsampling : 4:2:0
Bit depth : 8 bits
Scan type : Progressive
Compression mode : Lossy
Bits/(Pixel*Frame) : 0.122
Stream size : 197 MiB (85%)
Writing library : XviD 1.2.0.dev47 (UTC 2006-11-01)

Audio Info
-----------
ID : 1
Format : MPEG Audio
Format version : Version 1
Format profile : Layer 3
Mode : Joint stereo
Codec ID : 55
Codec ID/Hint : MP3
Duration : 24mn 30s
Bit rate mode : Constant
Bit rate : 192 Kbps
Channel(s) : 2 channels
Sampling rate : 48.0 KHz
Compression mode : Lossy
Stream size : 33.7 MiB (14%)
Alignment : Aligned on interleaves
Interleave, duration : 67 ms (2.00 video frames)
Interleave, preload duration : 504 ms
Writing library : LAME3.97
Encoding settings : -m j -V 4 -q 2 -lowpass 18.6 -b 192
 -----------------------------------------------
 | Help Me Keep This Torrent Alive For Years!! |
 -----------------------------------------------